<svg xmlns="http://www.w3.org/2000/svg" viewBox="0 0 205.777 64.619"><path fill="#FFF" d="M84.131 24.784c-2.648 0-4.624 1.186-5.611 3.201v-3.201h-5.137v21.654h5.334V34.899c0-3.437 2.055-4.741 5.493-4.741h1.501v-5.374h-1.58zm-26.275-6.006v6.006h-3.28v4.465h3.28v12.328c0 3.597 1.502 5.058 5.729 5.058 1.107 0 2.094 0 2.845-.117.435-.041.791-.119 1.147-.16v-4.504c-.198.039-.436.039-.712.039-.435.041-.988.041-1.501.041-1.738 0-2.173-.277-2.173-1.897V29.249h4.86v-4.465h-4.86v-6.006h-5.335zM26.881 32.687c0 5.651 2.528 14.186 12.683 14.186 7.665 0 10.747-5.098 11.064-9.523h-5.69c0 1.422-1.146 4.702-5.532 4.702-4.149 0-6.757-3.24-6.757-9.286 0-6.361 2.411-9.602 6.678-9.602 3.872 0 5.334 2.53 5.453 4.505h5.729c0-3.478-2.569-9.325-10.867-9.325-9.482 0-12.761 7.705-12.761 14.343m135.206-.04c0-6.163 2.489-9.483 6.757-9.483 4.227 0 6.756 3.32 6.756 9.483 0 5.809-2.529 9.405-6.756 9.405-4.268 0-6.757-3.596-6.757-9.405m-5.769 0c0 9.01 5.453 14.226 12.526 14.226 7.032 0 12.525-5.216 12.525-14.226 0-9.008-5.493-14.303-12.525-14.303-7.073 0-12.526 5.295-12.526 14.303m-65.472 13.79h5.334V17.198h-5.334v29.239zM0 0h125.773v64.619H0V0zm130.893 0h74.884v64.619h-74.884V0z"/><path fill="#FFF" d="M84.131 24.784c-2.648 0-4.624 1.186-5.611 3.201v-3.201h-5.137v21.654h5.334V34.899c0-3.437 2.055-4.741 5.493-4.741h1.501v-5.374h-1.58zm-26.275-6.006v6.006h-3.28v4.465h3.28v12.328c0 3.597 1.502 5.058 5.729 5.058 1.107 0 2.094 0 2.845-.117.435-.041.791-.119 1.147-.16v-4.504c-.198.039-.436.039-.712.039-.435.041-.988.041-1.501.041-1.738 0-2.173-.277-2.173-1.897V29.249h4.86v-4.465h-4.86v-6.006h-5.335zM26.881 32.687c0 5.651 2.528 14.186 12.683 14.186 7.665 0 10.747-5.098 11.064-9.523h-5.69c0 1.422-1.146 4.702-5.532 4.702-4.149 0-6.757-3.24-6.757-9.286 0-6.361 2.411-9.602 6.678-9.602 3.872 0 5.334 2.53 5.453 4.505h5.729c0-3.478-2.569-9.325-10.867-9.325-9.482 0-12.761 7.705-12.761 14.343m135.206-.04c0-6.163 2.489-9.483 6.757-9.483 4.227 0 6.756 3.32 6.756 9.483 0 5.809-2.529 9.405-6.756 9.405-4.268 0-6.757-3.596-6.757-9.405m-5.769 0c0 9.01 5.453 14.226 12.526 14.226 7.032 0 12.525-5.216 12.525-14.226 0-9.008-5.493-14.303-12.525-14.303-7.073 0-12.526 5.295-12.526 14.303m-65.472 13.79h5.334V17.198h-5.334v29.239zM0 0h125.773v64.619H0V0zm130.893 0h74.884v64.619h-74.884V0z"/></svg>
