<svg xmlns="http://www.w3.org/2000/svg" viewBox="0 0 457.12 121.52"><path d="M102.13,83.84a18.53,18.53,0,0,1-37.06.21h0v-.4h0c0-7-1.71-16.09-6.09-20.94-5.06-5.6-13.41-6.5-21.55-6.5h0A18.53,18.53,0,1,1,56,37.67c0,8,.34,17.74,5.74,22.79,4.94,4.61,14.62,4.85,21.91,4.85h0A18.54,18.54,0,0,1,102.13,83.84Z" fill="#fff"/><path d="M56,83.85a18.5,18.5,0,1,1,0-.06Z" fill="#fff"/><path d="M102.13,37.67A18.53,18.53,0,1,1,83.59,19.15h0a18.52,18.52,0,0,1,18.53,18.51Z" fill="#fff"/><path d="M65.07,83.85Z" fill="#fff"/><path d="M65.07,83.85Z" fill="#fff"/><path d="M157.64,34.75h3V78.31H182V80.9H157.64Z" fill="#fff"/><path d="M186.7,36.29a2.59,2.59,0,0,1,5.18,0h0a2.6,2.6,0,1,1-5.18.46A3.53,3.53,0,0,1,186.7,36.29Zm1.12,11h2.87V80.9h-2.87Z" fill="#fff"/><path d="M201.69,47.28h2.45l.35,5.26h.14c3.43-3.43,6.93-6.1,11.55-6.1,6.94,0,10.16,4.21,10.16,12.89V80.9h-2.87V59.68c0-7.14-2.32-10.64-7.78-10.64-4.06,0-7,2.17-11.13,6.44V80.9h-2.87Z" fill="#fff"/><path d="M236.77,30.48h2.87V67.87h.14l16.74-20.59h3.36L249,60.59,261.77,80.9h-3.22L247.28,62.76l-7.64,9V80.9h-2.87Z" fill="#fff"/><path d="M263.8,74.73l1.9-2A18,18,0,0,0,279.35,79c7.14,0,11.62-3.86,11.62-9.46,0-5.81-3.78-7.7-8.33-9.73l-7-3.15c-4-1.82-9.38-4.62-9.38-11.49,0-6.65,5.67-11.27,13.3-11.27a17.61,17.61,0,0,1,12.81,5.46l-1.75,2a14.91,14.91,0,0,0-11.06-4.76c-6.16,0-10.29,3.29-10.29,8.4,0,5.47,4.62,7.5,8,9l7.07,3.15c5.11,2.31,9.74,5.11,9.74,12.18s-5.82,12.4-14.71,12.4A20,20,0,0,1,263.8,74.73Z" fill="#fff"/><path d="M301.41,47.28h2.45l.35,4.28h.14c3.29-2.67,7.28-5.12,11.42-5.12,9,0,13.51,6.8,13.51,17.16,0,11.41-6.93,18.14-14.85,18.14-3.22,0-6.65-1.54-10.15-4.13V96.16h-2.87ZM326.2,63.6c0-8.33-2.94-14.56-10.85-14.56-3.37,0-6.94,2-11.07,5.6V74.8c3.85,3.16,7.49,4.35,10,4.35C321.23,79.15,326.2,72.77,326.2,63.6Z" fill="#fff"/><path d="M335,72.56c0-7.49,6.8-11,21.78-12.67.07-5.25-1.33-10.85-8-10.85A19.05,19.05,0,0,0,338,52.89l-1.34-2.1A21.44,21.44,0,0,1,349,46.44c7.91,0,10.57,5.82,10.57,12.89V80.9h-2.45l-.35-4.42h-.14c-3.43,2.81-7.56,5.26-12,5.26C339.44,81.74,335,78.94,335,72.56Zm21.78,1.19V62.13C342.66,63.81,337.9,67,337.9,72.42c0,4.91,3.36,6.8,7.28,6.8s7.28-1.89,11.55-5.47Z" fill="#fff"/><path d="M366.82,64.16c0-11.2,7.14-17.72,15.26-17.72A13.38,13.38,0,0,1,392,50.65l-1.61,1.82a11.26,11.26,0,0,0-8.2-3.43c-6.93,0-12.32,6.16-12.32,15.12s4.9,15,12.32,15a13.64,13.64,0,0,0,9.11-3.72l1.47,1.83A15.13,15.13,0,0,1,382,81.74C373.4,81.74,366.82,75.29,366.82,64.16Z" fill="#fff"/><path d="M396.16,64.16c0-11,7.14-17.72,14.64-17.72,7.91,0,12.81,5.61,12.81,15.55a16.31,16.31,0,0,1-.14,2.52h-24.3c.07,8.54,5.11,14.71,12.75,14.71a15.86,15.86,0,0,0,9.1-2.74l1.19,2a17.4,17.4,0,0,1-10.57,3.29C403.09,81.74,396.16,75.15,396.16,64.16ZM420.88,62c0-8.68-4-13-10.08-13-5.75,0-10.93,4.91-11.63,13Z" fill="#fff"/><path d="M0,0V121.52H457.12V0ZM121.14,115.52H6V6H121.14Zm330,0h-324V6h324Z" fill="#fff"/></svg>