<svg id="Layer_1" data-name="Layer 1" xmlns="http://www.w3.org/2000/svg" viewBox="0 0 127.17 121.52"><defs><style>.cls-1{fill:#fff;}</style></defs><path fill="#fff" class="cls-1" d="M104.7,84.14a18.53,18.53,0,0,1-37.06.21h0a2,2,0,0,0,0-.4h0c0-7-1.71-16.09-6.09-20.94-5.06-5.6-13.4-6.5-21.55-6.5h0A18.53,18.53,0,1,1,58.53,38c0,8,.33,17.75,5.74,22.79,4.94,4.61,14.61,4.85,21.9,4.86h0A18.52,18.52,0,0,1,104.7,84.14Z"/><path class="cls-1" d="M58.53,84.15A18.53,18.53,0,1,1,40,65.62,18.53,18.53,0,0,1,58.53,84.15Z"/><path class="cls-1" d="M104.7,38A18.53,18.53,0,1,1,86.17,19.45,18.52,18.52,0,0,1,104.7,38Z"/><path class="cls-1" d="M67.65,84.15a1.34,1.34,0,0,1,0,.2V84A1.34,1.34,0,0,1,67.65,84.15Z"/><path class="cls-1" d="M67.65,84.15a1.34,1.34,0,0,1,0,.2V84A1.34,1.34,0,0,1,67.65,84.15Z"/><path class="cls-1" d="M0,0V121.52H127.17V0ZM121.14,115.52H6V6H121.14Zm6,0V6"/></svg>
